<?xml version="1.0" standalone="no"?>
<svg version="1.0" xmlns="http://www.w3.org/2000/svg"
 width="192.000000pt" height="192.000000pt" viewBox="0 0 192.000000 192.000000"
 preserveAspectRatio="xMidYMid meet">

<g transform="translate(0.000000,192.000000) scale(0.100000,-0.100000)"
fill="#000000" stroke="none">
<path d="M735 1894 c-331 -74 -586 -318 -692 -661 -25 -81 -27 -102 -27 -268
-1 -159 2 -189 22 -260 130 -452 553 -749 992 -695 290 36 537 197 686 450 47
80 55 110 26 110 -28 0 -60 -28 -82 -69 -34 -68 -130 -179 -208 -241 -157
-123 -328 -183 -527 -182 -181 0 -359 62 -508 175 -63 48 -68 54 -65 86 2 23
12 40 29 54 26 19 29 19 128 2 214 -36 311 29 280 187 -11 55 -10 58 15 88 14
18 26 35 26 40 0 24 -23 64 -52 90 l-32 29 30 23 c16 12 44 37 62 55 l33 32
-26 51 c-30 59 -26 69 35 100 45 23 65 65 51 103 -6 14 -40 63 -76 109 -66 84
-95 148 -95 214 0 49 -36 152 -75 217 -19 32 -35 60 -35 61 0 2 33 12 73 22
103 27 303 25 412 -5 103 -27 243 -97 322 -161 156 -125 276 -334 313 -545 10
-61 31 -88 60 -82 31 6 4 169 -51 306 -109 273 -343 479 -629 555 -93 25 -323
30 -415 10z m-92 -226 c25 -51 41 -101 51 -164 21 -128 33 -152 157 -306 12
-14 19 -30 16 -35 -13 -20 -129 -85 -142 -79 -8 3 -15 17 -15 31 0 27 -18 33
-38 13 -35 -35 5 -98 61 -98 30 0 36 -4 49 -39 l16 -39 -69 -58 c-38 -32 -69
-65 -68 -74 0 -8 21 -29 47 -46 56 -37 63 -58 27 -86 -23 -18 -26 -26 -21 -57
19 -113 19 -136 -2 -154 -30 -28 -89 -31 -191 -13 -69 13 -100 14 -129 7 -39
-11 -84 -51 -96 -85 -16 -47 -160 206 -197 349 -32 118 -32 317 0 440 60 233
208 439 397 549 92 54 91 54 147 -56z"/>
<path d="M555 1418 c-37 -20 -104 -26 -170 -16 -14 2 -21 -3 -23 -18 -4 -29
46 -49 119 -48 67 1 122 28 127 63 6 36 -9 41 -53 19z"/>
<path d="M1420 1302 c-19 -9 -45 -32 -57 -51 -39 -58 -25 -143 21 -125 10 4
16 18 16 36 0 19 10 40 29 59 84 83 202 -22 147 -130 -33 -63 -93 -81 -302
-90 -165 -7 -174 -8 -236 -39 -64 -31 -117 -76 -105 -88 4 -4 28 2 54 14 87
37 136 44 323 51 180 7 186 8 239 36 68 38 103 88 109 158 10 133 -123 227
-238 169z"/>
<path d="M1720 978 c-51 -9 -96 -47 -109 -95 -19 -65 38 -86 61 -23 11 32 52
60 89 60 11 0 36 -15 55 -34 81 -81 15 -180 -118 -179 -65 1 -96 10 -237 70
-145 61 -214 76 -341 71 -80 -3 -116 -9 -152 -25 -66 -30 -63 -47 5 -37 82 11
211 7 279 -11 35 -8 124 -40 199 -70 75 -30 162 -60 193 -66 156 -28 290 69
272 198 -13 100 -96 159 -196 141z"/>
<path d="M953 724 c-31 -13 -9 -31 50 -41 131 -23 271 -97 327 -174 57 -80 33
-179 -44 -179 -42 0 -54 14 -58 69 -2 25 -8 46 -14 48 -23 8 -44 -28 -44 -73
0 -64 39 -105 106 -111 63 -5 108 21 134 80 38 82 21 156 -53 235 -58 61 -109
93 -188 121 -55 18 -194 35 -216 25z"/>
</g>
</svg>
